<svg width="46" height="47" viewBox="0 0 46 47" fill="none" xmlns="http://www.w3.org/2000/svg">
<g id="Group 3606">
<circle id="Ellipse 108" cx="23" cy="23.5" r="23" fill="white"/>
<path id="Vector" d="M14.2532 23.4887C13.9511 23.1867 13.8 22.8022 13.8 22.3354C13.8 21.8686 13.9511 21.4841 14.2532 21.1821L21.8351 13.603C21.9999 13.4382 22.1785 13.3218 22.3707 13.2537C22.563 13.1856 22.7691 13.151 22.9888 13.1499C23.2086 13.1499 23.4146 13.1845 23.6069 13.2537C23.7992 13.3229 23.9778 13.4393 24.1426 13.603L31.7244 21.1821C32.0266 21.4841 32.1848 21.862 32.1991 22.3156C32.2134 22.7693 32.0552 23.1603 31.7244 23.4887C31.4222 23.7908 31.0377 23.9418 30.5707 23.9418C30.1037 23.9418 29.7191 23.7908 29.4169 23.4887L22.9888 17.1042L16.5608 23.4887C16.2586 23.7908 15.8806 23.949 15.4268 23.9633C14.973 23.9775 14.5818 23.8194 14.2532 23.4887ZM14.2532 33.3745C13.9511 33.0724 13.8 32.688 13.8 32.2212C13.8 31.7543 13.9511 31.3699 14.2532 31.0678L21.8351 23.4887C21.9999 23.324 22.1785 23.2076 22.3707 23.1395C22.563 23.0713 22.7691 23.0367 22.9888 23.0357C23.2086 23.0357 23.4146 23.0703 23.6069 23.1395C23.7992 23.2087 23.9778 23.3251 24.1426 23.4887L31.7244 31.0678C32.0266 31.3699 32.1848 31.7477 32.1991 32.2014C32.2134 32.655 32.0552 33.0461 31.7244 33.3745C31.4222 33.6766 31.0377 33.8276 30.5707 33.8276C30.1037 33.8276 29.7191 33.6766 29.4169 33.3745L22.9888 26.99L16.5608 33.3745C16.2586 33.6766 15.8806 33.8347 15.4268 33.849C14.973 33.8633 14.5818 33.7051 14.2532 33.3745Z" fill="#F48937"/>
</g>
</svg>
