<svg width="113" height="114" viewBox="0 0 113 114" fill="none" xmlns="http://www.w3.org/2000/svg">
<g id="Group 34342">
<path id="Vector" d="M112.734 56.798C112.734 87.8647 87.5423 113.031 56.5 113.031C25.4577 113.031 0.266479 87.8647 0.266479 56.798C0.266479 25.7557 25.4577 0.564453 56.5 0.564453C87.5667 0.564453 112.734 25.7557 112.734 56.798Z" fill="url(#paint0_linear_742_187)"/>
<path id="Vector_2" d="M30.6966 42.1092L24.1846 29.1096H36.9883L43.5003 42.1092H30.6966Z" fill="#F28337"/>
<path id="Vector_3" d="M56.5 93.7403L36.9884 54.913H49.988L56.5 67.9125L63.012 54.913H75.8157L56.5 93.7403Z" fill="url(#paint1_linear_742_187)"/>
<path id="Vector_4" d="M69.524 42.1092L75.8157 29.1096H88.8153L82.3033 42.1092H69.524Z" fill="url(#paint2_linear_742_187)"/>
</g>
<defs>
<linearGradient id="paint0_linear_742_187" x1="56.5" y1="0.564453" x2="56.5" y2="113.031" gradientUnits="userSpaceOnUse">
<stop stop-color="#020305"/>
<stop offset="1" stop-color="#020305" stop-opacity="0"/>
</linearGradient>
<linearGradient id="paint1_linear_742_187" x1="56.4021" y1="54.913" x2="56.4021" y2="93.7403" gradientUnits="userSpaceOnUse">
<stop offset="0.510417" stop-color="#F48A37"/>
<stop offset="1" stop-color="#ED7638"/>
</linearGradient>
<linearGradient id="paint2_linear_742_187" x1="79.1697" y1="29.1096" x2="79.1697" y2="42.1092" gradientUnits="userSpaceOnUse">
<stop offset="0.510417" stop-color="#F48A37"/>
<stop offset="1" stop-color="#ED7638"/>
</linearGradient>
</defs>
</svg>
