<svg width="277" height="79" viewBox="0 0 277 79" fill="none" xmlns="http://www.w3.org/2000/svg">
<path d="M79.0804 39.4416C79.0821 47.1844 76.7909 54.7538 72.4965 61.1924C68.2022 67.631 62.0975 72.6496 54.9547 75.6135C47.8119 78.5773 39.9518 79.3533 32.3686 77.8432C24.7855 76.3331 17.8198 72.6047 12.3527 67.1298C6.88556 61.6548 3.16259 54.6791 1.65464 47.085C0.146701 39.4909 0.921529 31.6195 3.88112 24.4665C6.84072 17.3134 11.8521 11.2 18.2815 6.89942C24.7109 2.59886 32.2694 0.304359 40.0011 0.306123C50.3648 0.308488 60.3034 4.43244 67.6317 11.7712C74.96 19.1101 79.078 29.0629 79.0804 39.4416Z" fill="url(#paint0_linear_784_201)"/>
<path d="M22.0604 29.2183L17.5441 20.1638H26.4521L30.9595 29.2183H22.0604Z" fill="white"/>
<path d="M40.0011 65.1423L26.4343 38.1213H35.4759L40.0011 47.1759L44.5174 38.1213H53.4254L40.0011 65.1423Z" fill="white"/>
<path d="M49.0427 29.2183L53.4165 20.1638H62.4581L57.9328 29.2183H49.0427Z" fill="white"/>
<path d="M91.7831 62.3769C92.175 61.5068 92.7897 60.7559 93.5647 60.2002C94.3213 59.6854 95.2156 59.4117 96.1302 59.4152C97.1675 59.3813 98.1864 59.6953 99.0253 60.3073C99.8791 60.9953 100.501 61.9296 100.807 62.9835H99.2213C98.9848 62.3255 98.5604 61.7516 98.0009 61.3332C97.4478 60.9393 96.782 60.7359 96.1035 60.7533C95.4266 60.7469 94.7641 60.9493 94.2061 61.3332C93.621 61.7472 93.1616 62.3153 92.8788 62.9746C92.5429 63.7635 92.379 64.615 92.3978 65.4724C92.3787 66.324 92.5428 67.1698 92.8788 67.9524C93.1591 68.6131 93.619 69.1818 94.2061 69.5938C94.762 69.982 95.4259 70.1848 96.1035 70.1737C96.781 70.1944 97.447 69.994 98.0009 69.6027C98.559 69.1867 98.9833 68.616 99.2213 67.9613H100.807C100.506 69.0177 99.8835 69.9535 99.0253 70.6375C98.1868 71.2502 97.1676 71.5642 96.1302 71.5296C95.2164 71.5363 94.322 71.2657 93.5647 70.7535C92.7913 70.2075 92.1765 69.4656 91.7831 68.6036C91.3426 67.6218 91.1149 66.5577 91.1149 65.4813C91.1149 64.405 91.3426 63.3409 91.7831 62.3591V62.3769Z" fill="#C2C1C1"/>
<path d="M105.448 70.7892C104.65 70.2491 104.013 69.5032 103.604 68.6304C103.159 67.6498 102.929 66.5852 102.929 65.5081C102.929 64.431 103.159 63.3664 103.604 62.3858C104.012 61.5098 104.649 60.7607 105.448 60.2181C106.205 59.7049 107.1 59.4342 108.013 59.442C108.936 59.4327 109.84 59.7033 110.606 60.2181C111.397 60.7606 112.027 61.5063 112.432 62.3769C112.868 63.3597 113.094 64.4235 113.094 65.4992C113.094 66.5749 112.868 67.6386 112.432 68.6214C112.029 69.4907 111.398 70.2339 110.606 70.7714C109.84 71.2862 108.936 71.5567 108.013 71.5475C107.101 71.5605 106.207 71.2961 105.448 70.7892ZM109.902 69.6384C110.492 69.2235 110.955 68.652 111.238 67.9881C111.891 66.3901 111.891 64.5993 111.238 63.0014C110.955 62.3421 110.496 61.774 109.911 61.3599C109.342 60.9821 108.674 60.7806 107.991 60.7806C107.308 60.7806 106.641 60.9821 106.072 61.3599C105.49 61.7752 105.033 62.3432 104.753 63.0014C104.1 64.5993 104.1 66.3901 104.753 67.9881C105.034 68.6537 105.497 69.226 106.089 69.6384C106.655 70.017 107.32 70.219 108 70.219C108.68 70.219 109.345 70.017 109.911 69.6384H109.902Z" fill="#C2C1C1"/>
<path d="M123.406 71.4493H122.088L116.743 61.9933V71.4493H115.443V59.5579H116.77L122.115 68.9961V59.5579H123.433L123.406 71.4493Z" fill="#C2C1C1"/>
<path d="M127.673 71.146C127.162 70.8854 126.733 70.4868 126.435 69.9953C126.129 69.4768 125.969 68.8849 125.972 68.2825H127.379C127.409 68.803 127.617 69.2974 127.967 69.683C128.161 69.8824 128.397 70.0368 128.657 70.1354C128.917 70.2341 129.195 70.2745 129.473 70.254C129.745 70.2675 130.018 70.2255 130.273 70.1304C130.529 70.0353 130.763 69.8892 130.96 69.7009C131.142 69.5137 131.284 69.2914 131.378 69.0476C131.471 68.8037 131.514 68.5434 131.504 68.2825C131.524 67.8854 131.411 67.4929 131.183 67.1674C130.974 66.8897 130.698 66.6689 130.381 66.5251C129.963 66.3341 129.531 66.1732 129.09 66.0434C128.539 65.8863 128.003 65.6834 127.486 65.4367C127.063 65.2124 126.707 64.88 126.453 64.4733C126.139 63.9333 125.991 63.3129 126.025 62.6891C126.015 62.0887 126.159 61.4957 126.444 60.9674C126.721 60.476 127.132 60.0738 127.629 59.8077C128.179 59.5248 128.792 59.3838 129.41 59.3974C130.267 59.3676 131.102 59.6677 131.744 60.2359C132.359 60.8126 132.726 61.6058 132.769 62.4483H131.317C131.253 61.9581 131.008 61.5097 130.63 61.1911C130.253 60.8725 129.77 60.7068 129.277 60.7266C129.029 60.7176 128.781 60.7579 128.549 60.8452C128.317 60.9325 128.104 61.065 127.923 61.2351C127.744 61.4196 127.606 61.6395 127.517 61.8807C127.428 62.1219 127.39 62.379 127.406 62.6356C127.386 63.0147 127.496 63.3892 127.718 63.6972C127.918 63.9636 128.181 64.1753 128.484 64.3127C128.796 64.4555 129.223 64.616 129.776 64.8034C130.33 64.9722 130.869 65.187 131.388 65.4457C131.793 65.6831 132.131 66.021 132.368 66.4269C132.686 66.9654 132.838 67.5863 132.804 68.2111C132.81 68.7793 132.676 69.3402 132.412 69.8436C132.15 70.3597 131.749 70.7922 131.254 71.0925C130.714 71.4091 130.098 71.5726 129.473 71.5653C128.847 71.578 128.229 71.4339 127.673 71.146Z" fill="#C2C1C1"/>
<path d="M136.679 59.5758V67.0871C136.617 67.9224 136.851 68.7529 137.338 69.4332C137.568 69.6918 137.854 69.895 138.173 70.0279C138.492 70.1607 138.837 70.2197 139.182 70.2004C139.518 70.2141 139.852 70.1522 140.16 70.0194C140.469 69.8867 140.743 69.6864 140.964 69.4332C141.461 68.7572 141.699 67.9242 141.632 67.0871V59.5758H142.951V67.0425C142.977 67.9033 142.804 68.7585 142.443 69.5403C142.146 70.1685 141.668 70.6935 141.071 71.0479C140.474 71.3696 139.807 71.538 139.129 71.538C138.451 71.538 137.784 71.3696 137.187 71.0479C136.589 70.6978 136.113 70.1713 135.824 69.5403C135.463 68.7585 135.289 67.9033 135.316 67.0425V59.549L136.679 59.5758Z" fill="#C2C1C1"/>
<path d="M147.111 70.1826H150.674V71.4493H145.801V59.5758H147.119L147.111 70.1826Z" fill="#C2C1C1"/>
<path d="M158.905 59.5758V60.7979H156.143V71.4137H154.816V60.7979H152.046V59.5758H158.905Z" fill="#C2C1C1"/>
<path d="M167.109 68.8266H162.655L161.835 71.5029H160.446L164.107 59.6918H165.63L169.283 71.5029H167.884L167.109 68.8266ZM166.726 67.5599L164.9 61.5651L163.065 67.5599H166.726Z" fill="#C2C1C1"/>
<path d="M179.482 71.4493H178.164L172.819 61.9933V71.4493H171.563V59.5579H172.89L178.235 68.9961V59.5579H179.553L179.482 71.4493Z" fill="#C2C1C1"/>
<path d="M182.511 62.3769C182.903 61.5068 183.517 60.7559 184.292 60.2002C185.049 59.6854 185.943 59.4117 186.858 59.4152C187.895 59.3813 188.914 59.6953 189.753 60.3073C190.607 60.9953 191.229 61.9296 191.535 62.9835H189.949C189.712 62.3255 189.288 61.7516 188.729 61.3332C188.175 60.9393 187.51 60.7359 186.831 60.7533C186.154 60.7469 185.492 60.9493 184.934 61.3332C184.349 61.7472 183.889 62.3153 183.607 62.9746C183.271 63.7635 183.107 64.615 183.125 65.4724C183.106 66.324 183.27 67.1698 183.607 67.9524C183.887 68.6131 184.347 69.1818 184.934 69.5938C185.49 69.982 186.154 70.1848 186.831 70.1737C187.509 70.1944 188.175 69.994 188.729 69.6027C189.287 69.1867 189.711 68.616 189.949 67.9613H191.535C191.234 69.0177 190.611 69.9535 189.753 70.6375C188.914 71.2502 187.895 71.5642 186.858 71.5296C185.944 71.5363 185.05 71.2657 184.292 70.7535C183.519 70.2075 182.904 69.4656 182.511 68.6036C182.07 67.6218 181.843 66.5577 181.843 65.4813C181.843 64.405 182.07 63.3409 182.511 62.3591V62.3769Z" fill="#C2C1C1"/>
<path d="M201.244 59.5758L197.948 66.9711V71.4315H196.621V66.9711L193.307 59.5758H194.777L197.271 65.5884L199.774 59.5758H201.244Z" fill="#C2C1C1"/>
<path d="M209.128 71.146C208.616 70.8854 208.187 70.4868 207.89 69.9953C207.583 69.4768 207.423 68.8849 207.426 68.2825H208.834C208.856 68.8154 209.064 69.3238 209.422 69.7187C209.616 69.9181 209.851 70.0725 210.111 70.1711C210.371 70.2697 210.65 70.3102 210.927 70.2896C211.2 70.3032 211.472 70.2611 211.728 70.1661C211.984 70.071 212.217 69.9249 212.415 69.7365C212.597 69.5493 212.739 69.3271 212.832 69.0832C212.925 68.8394 212.968 68.5791 212.958 68.3181C212.978 67.921 212.866 67.5286 212.638 67.203C212.428 66.9254 212.152 66.7046 211.836 66.5608C211.417 66.3698 210.986 66.2088 210.544 66.079C209.994 65.922 209.457 65.719 208.941 65.4724C208.518 65.2481 208.161 64.9157 207.907 64.509C207.594 63.9689 207.445 63.3486 207.48 62.7248C207.469 62.1244 207.613 61.5314 207.899 61.0031C208.175 60.5117 208.586 60.1094 209.083 59.8434C209.634 59.5605 210.246 59.4195 210.865 59.4331C211.721 59.4033 212.557 59.7034 213.199 60.2716C213.814 60.8483 214.181 61.6415 214.223 62.484H212.771C212.707 61.9938 212.462 61.5453 212.085 61.2267C211.707 60.9082 211.225 60.7425 210.731 60.7622C210.483 60.7533 210.236 60.7936 210.003 60.8809C209.771 60.9681 209.558 61.1006 209.377 61.2707C209.199 61.4553 209.06 61.6752 208.971 61.9164C208.882 62.1576 208.845 62.4147 208.861 62.6713C208.841 63.0504 208.951 63.4248 209.172 63.7329C209.372 63.9993 209.635 64.211 209.938 64.3484C210.25 64.4911 210.678 64.6517 211.23 64.839C211.784 65.0078 212.324 65.2227 212.842 65.4813C213.268 65.7051 213.628 66.0374 213.885 66.4448C214.203 66.9833 214.355 67.6041 214.321 68.2289C214.327 68.7972 214.192 69.358 213.929 69.8614C213.667 70.3775 213.266 70.81 212.771 71.1103C212.231 71.427 211.615 71.5904 210.99 71.5831C210.342 71.601 209.7 71.4504 209.128 71.146Z" fill="#C2C1C1"/>
<path d="M218.161 60.7979V64.7677H221.857V66.0433H218.161V70.138H222.338V71.4136H216.887V59.5579H222.338V60.7979H218.161Z" fill="#C2C1C1"/>
<path d="M230.231 71.4493L227.817 66.5964H226.213V71.4493H224.895V59.5758H228.164C228.84 59.5547 229.51 59.7116 230.106 60.0307C230.614 60.3228 231.026 60.7568 231.291 61.2797C231.581 61.9055 231.714 62.5932 231.677 63.2823C231.639 63.9715 231.433 64.6408 231.077 65.2316C230.666 65.8599 230.027 66.3042 229.295 66.4715L231.834 71.4493H230.231ZM226.213 65.3475H228.164C228.462 65.3705 228.762 65.3264 229.041 65.2183C229.32 65.1103 229.571 64.9411 229.777 64.7231C230.152 64.2546 230.343 63.6639 230.311 63.0638C230.352 62.4722 230.164 61.8873 229.785 61.4313C229.571 61.2265 229.315 61.0691 229.036 60.9692C228.757 60.8693 228.46 60.8292 228.164 60.8515H226.213V65.3475Z" fill="#C2C1C1"/>
<path d="M242.702 59.5758L238.872 71.4493H237.348L233.527 59.5758H234.934L238.123 69.8079L241.303 59.5758H242.702Z" fill="#C2C1C1"/>
<path d="M246.069 59.5758V71.4493H244.751V59.5758H246.069Z" fill="#C2C1C1"/>
<path d="M249.062 62.3769C249.47 61.5037 250.1 60.7531 250.888 60.2002C251.645 59.6854 252.539 59.4117 253.454 59.4152C254.491 59.3827 255.51 59.6965 256.349 60.3073C257.203 60.9953 257.825 61.9296 258.131 62.9835H256.545C256.311 62.3267 255.89 61.7529 255.333 61.3332C254.797 60.9714 254.163 60.7845 253.516 60.7979C252.839 60.7915 252.177 60.9939 251.619 61.3778C251.031 61.7894 250.572 62.3582 250.292 63.0192C249.956 63.8081 249.792 64.6596 249.811 65.517C249.791 66.3686 249.956 67.2144 250.292 67.997C250.569 68.6595 251.029 69.229 251.619 69.6384C252.175 70.0266 252.839 70.2294 253.516 70.2183C254.194 70.239 254.86 70.0386 255.414 69.6473C255.968 69.23 256.39 68.6595 256.625 68.0059H258.211C257.911 69.0626 257.288 69.9985 256.429 70.6821C255.59 71.2935 254.571 71.6074 253.534 71.5742C252.62 71.5809 251.726 71.3103 250.969 70.7981C250.148 70.2589 249.489 69.5066 249.062 68.6214C248.622 67.6396 248.394 66.5755 248.394 65.4992C248.394 64.4228 248.622 63.3587 249.062 62.3769Z" fill="#C2C1C1"/>
<path d="M262.059 60.7979V64.7677H265.747V66.0433H262.059V70.138H266.183V71.4136H260.732V59.5579H266.183V60.7979H262.059Z" fill="#C2C1C1"/>
<path d="M270.21 71.146C269.696 70.8856 269.264 70.4871 268.963 69.9952C268.656 69.4768 268.496 68.8848 268.499 68.2824H269.907C269.944 68.8012 270.151 69.2933 270.495 69.683C270.69 69.8814 270.925 70.0352 271.185 70.1337C271.445 70.2323 271.723 70.2733 272 70.2539C272.273 70.2691 272.546 70.2278 272.802 70.1326C273.058 70.0374 273.291 69.8905 273.488 69.7008C273.67 69.5136 273.812 69.2914 273.905 69.0475C273.999 68.8037 274.041 68.5434 274.031 68.2824C274.054 67.8864 273.944 67.494 273.72 67.1673C273.51 66.8897 273.234 66.6689 272.918 66.525C272.499 66.3356 272.067 66.1747 271.626 66.0433C271.073 65.8861 270.534 65.6832 270.014 65.4367C269.592 65.21 269.236 64.8781 268.981 64.4733C268.667 63.9332 268.518 63.3129 268.553 62.6891C268.541 62.0874 268.688 61.4933 268.981 60.9674C269.255 60.4741 269.667 60.0713 270.165 59.8077C270.715 59.5233 271.328 59.3822 271.947 59.3973C272.804 59.3657 273.64 59.6661 274.281 60.2359C274.899 60.8104 275.267 61.6048 275.305 62.4482H273.853C273.804 61.9891 273.588 61.5639 273.247 61.2529C273.056 61.0754 272.832 60.9375 272.587 60.8472C272.343 60.7569 272.083 60.7159 271.822 60.7265C271.569 60.7119 271.316 60.7515 271.08 60.8427C270.843 60.9338 270.629 61.0744 270.451 61.2551C270.273 61.4358 270.136 61.6524 270.048 61.8904C269.96 62.1285 269.924 62.3825 269.943 62.6356C269.927 63.0142 270.037 63.3873 270.254 63.6972C270.457 63.964 270.724 64.1756 271.029 64.3127C271.448 64.4987 271.876 64.6625 272.312 64.8033C272.867 64.9706 273.406 65.1855 273.924 65.4456C274.353 65.6692 274.715 66.0014 274.976 66.4091C275.29 66.9491 275.442 67.5688 275.412 68.1932C275.413 68.7609 275.279 69.3205 275.02 69.8257C274.754 70.3422 274.35 70.7745 273.853 71.0746C273.313 71.3912 272.697 71.5547 272.072 71.5474C271.427 71.5792 270.785 71.4407 270.21 71.146Z" fill="#C2C1C1"/>
<path d="M96.2728 20.5295V46.2838H91.1151V20.5295H96.2728ZM123.353 46.2838H118.195L106.535 28.6118V46.2838H101.368V20.4939H106.535L118.213 38.2016V20.4939H123.371L123.353 46.2838ZM151.547 20.5295L142.113 46.2838H135.878L126.426 20.5295H131.949L139.022 41.0473L146.059 20.5295H151.547ZM159.796 20.5295V46.2838H154.638V20.5295H159.796ZM163.635 33.3665C163.594 30.994 164.178 28.6526 165.327 26.5778C166.424 24.614 168.043 22.9928 170.004 21.8944C172.208 20.6932 174.694 20.1074 177.201 20.1984C179.709 20.2895 182.146 21.0539 184.257 22.4118C186.415 23.8843 188.013 26.044 188.791 28.5404H182.858C182.332 27.3774 181.457 26.4076 180.355 25.766C179.227 25.1446 177.954 24.8366 176.667 24.874C175.255 24.8517 173.864 25.2223 172.65 25.9445C171.481 26.651 170.536 27.6748 169.924 28.8972C169.267 30.2906 168.941 31.8172 168.971 33.3576C168.948 34.8974 169.274 36.4224 169.924 37.818C170.545 39.0436 171.487 40.0768 172.65 40.8065C173.873 41.5025 175.26 41.8568 176.667 41.8324C177.954 41.8698 179.227 41.5618 180.355 40.9403C181.453 40.2809 182.325 39.3044 182.858 38.1392H188.791C188.018 40.6454 186.42 42.8153 184.257 44.2945C182.019 45.8013 179.372 46.5801 176.676 46.5247C174.349 46.5561 172.054 45.9845 170.013 44.8654C168.057 43.7457 166.438 42.1186 165.327 40.1553C164.176 38.081 163.592 35.7392 163.635 33.3665ZM198.287 20.5295V46.2838H193.129V20.5295H198.287ZM215.355 46.5247C213.033 46.5467 210.746 45.9625 208.718 44.8297C206.734 43.7254 205.082 42.108 203.935 40.1463C202.737 38.0739 202.122 35.716 202.153 33.3219C202.123 30.9506 202.739 28.616 203.935 26.5689C205.073 24.5911 206.726 22.96 208.718 21.8498C210.746 20.717 213.033 20.1329 215.355 20.1549C217.674 20.1244 219.961 20.7092 221.982 21.8498C223.969 22.9538 225.613 24.5872 226.73 26.5689C227.93 28.6143 228.546 30.9501 228.512 33.3219C228.547 35.7165 227.931 38.0756 226.73 40.1463C225.603 42.1118 223.962 43.7314 221.982 44.8297C219.958 45.9641 217.674 46.5485 215.355 46.5247ZM215.355 41.9216C216.785 41.9482 218.197 41.5909 219.443 40.8868C220.63 40.1597 221.588 39.1113 222.205 37.8626C222.899 36.4544 223.25 34.9013 223.229 33.3309C223.258 31.7856 222.916 30.2559 222.232 28.8705C221.623 27.6248 220.663 26.5856 219.47 25.882C218.225 25.1737 216.812 24.8161 215.381 24.8472C213.939 24.8172 212.515 25.1745 211.257 25.882C210.059 26.5826 209.095 27.6224 208.487 28.8705C207.806 30.2567 207.466 31.7863 207.498 33.3309C207.464 34.9015 207.803 36.4577 208.487 37.8715C209.105 39.1225 210.065 40.1715 211.257 40.8957C212.508 41.5946 213.922 41.9515 215.355 41.9305V41.9216ZM237.42 20.5117V36.471C237.371 37.1971 237.466 37.9256 237.7 38.6146C237.934 39.3036 238.302 39.9394 238.783 40.4853C239.871 41.369 241.23 41.8512 242.631 41.8512C244.032 41.8512 245.391 41.369 246.479 40.4853C246.96 39.9394 247.327 39.3036 247.561 38.6146C247.795 37.9256 247.891 37.1971 247.842 36.471V20.5295H253.035V36.4264C253.1 38.3841 252.603 40.3193 251.601 42.0019C250.692 43.4771 249.373 44.655 247.806 45.3918C246.159 46.1443 244.37 46.5338 242.56 46.5338C240.749 46.5338 238.96 46.1443 237.313 45.3918C235.779 44.647 234.497 43.4685 233.625 42.0019C232.672 40.3023 232.201 38.3745 232.262 36.4264V20.5295L237.42 20.5117ZM266.878 46.5247C265.213 46.5601 263.559 46.2566 262.015 45.6326C260.66 45.0683 259.486 44.1426 258.621 42.9564C257.773 41.7607 257.325 40.3278 257.338 38.8617H262.861C262.87 39.3334 262.972 39.7985 263.162 40.2303C263.351 40.6621 263.624 41.052 263.965 41.3774C264.755 42.0112 265.752 42.3291 266.762 42.2695C267.779 42.3254 268.784 42.0259 269.604 41.422C269.937 41.1421 270.201 40.7904 270.379 40.3934C270.556 39.9963 270.642 39.5642 270.629 39.1294C270.654 38.4374 270.404 37.7636 269.934 37.256C269.434 36.7426 268.825 36.3492 268.152 36.1052C267.218 35.725 266.26 35.4061 265.284 35.1507C263.892 34.759 262.526 34.2793 261.195 33.7145C260.151 33.2015 259.237 32.4571 258.523 31.5378C257.737 30.3885 257.349 29.0128 257.418 27.6216C257.386 26.2101 257.783 24.8223 258.558 23.6429C259.35 22.4833 260.465 21.5834 261.765 21.0559C263.255 20.4284 264.861 20.1243 266.477 20.1638C268.787 20.0567 271.064 20.7463 272.927 22.1174C273.749 22.754 274.422 23.5629 274.899 24.4876C275.376 25.4122 275.646 26.4301 275.688 27.4699H270.014C269.997 27.0451 269.886 26.6293 269.689 26.2528C269.492 25.8763 269.213 25.5485 268.874 25.2932C268.092 24.6693 267.11 24.3521 266.112 24.4012C265.236 24.356 264.373 24.6284 263.68 25.1684C263.374 25.4551 263.136 25.8063 262.982 26.1966C262.828 26.5869 262.762 27.0065 262.79 27.4253C262.779 27.7431 262.832 28.0598 262.946 28.3569C263.059 28.654 263.23 28.9256 263.449 29.1559C263.945 29.62 264.517 29.9943 265.141 30.2621C265.827 30.5297 266.789 30.8509 268.018 31.2256C269.415 31.6181 270.781 32.11 272.107 32.6975C273.204 33.203 274.161 33.9685 274.895 34.9277C275.699 36.0535 276.1 37.4172 276.036 38.7993C276.043 40.1527 275.673 41.4813 274.967 42.6352C274.211 43.8614 273.124 44.8481 271.831 45.481C270.286 46.216 268.588 46.5737 266.878 46.5247Z" fill="url(#paint1_linear_784_201)"/>
<defs>
<linearGradient id="paint0_linear_784_201" x1="39.6091" y1="-23.0931" x2="40.4578" y2="112.137" gradientUnits="userSpaceOnUse">
<stop stop-color="#F79238"/>
<stop offset="1" stop-color="#E86938"/>
</linearGradient>
<linearGradient id="paint1_linear_784_201" x1="183.553" y1="8.78088" x2="183.553" y2="50.2803" gradientUnits="userSpaceOnUse">
<stop stop-color="#F79238"/>
<stop offset="1" stop-color="#E86938"/>
</linearGradient>
</defs>
</svg>
