<svg width="22" height="28" viewBox="0 0 22 28" fill="none" xmlns="http://www.w3.org/2000/svg">
<g id="Group 34314">
<path id="gisLocationPoi0" d="M11.0002 0C6.50373 0 2.81873 3.674 2.81873 8.15815C2.81873 9.8956 3.37368 11.5104 4.3128 12.8376L10.0017 22.6724C10.7984 23.7133 11.3281 23.5155 11.9905 22.6174L18.2655 11.9391C18.392 11.7098 18.4915 11.4656 18.5781 11.2162C18.9763 10.2458 19.1811 9.20702 19.181 8.15815C19.1812 3.674 15.4973 0 11.0002 0ZM11.0002 3.8225C13.4219 3.8225 15.3474 5.74365 15.3474 8.15815C15.3474 10.5726 13.4219 12.493 11.0002 12.493C8.57888 12.493 6.6525 10.5729 6.6525 8.15815C6.6525 5.74365 8.57888 3.82278 11.0002 3.82278V3.8225Z" fill="#ED7738"/>
<path id="gisLocationPoi1" d="M16.2013 13.4497L16.1879 13.485C16.1921 13.4743 16.1954 13.4634 16.1996 13.4528L16.2013 13.4497Z" fill="#ED7738"/>
<path id="gisLocationPoi2" d="M6.60165 18.9907C2.717 19.5396 0 20.8527 0 22.7857C0 25.3894 4.5397 27.5 11 27.5C17.4603 27.5 22 25.3894 22 22.7857C22 20.8527 19.2833 19.5396 15.3989 18.9907L14.8607 19.907C17.7884 20.3132 19.8 21.1668 19.8 22.1573C19.8 23.5461 15.8601 24.6717 11 24.6717C6.13993 24.6717 2.2 23.5461 2.2 22.1573C2.19973 21.1701 4.19815 20.3173 7.13488 19.9095C6.9575 19.6031 6.7793 19.2973 6.60165 18.9907Z" fill="#ED7738"/>
</g>
</svg>
