<svg width="22" height="19" viewBox="0 0 22 19" fill="none" xmlns="http://www.w3.org/2000/svg">
<g id="Group 34313">
<path id="Vector" d="M22 5.13788V14.9375C22 15.8492 21.6378 16.7235 20.9932 17.3682C20.3485 18.0128 19.4742 18.375 18.5625 18.375H3.4375C2.52582 18.375 1.65148 18.0128 1.00682 17.3682C0.362164 16.7235 0 15.8492 0 14.9375V5.13788L10.6508 11.4051C10.7566 11.4675 10.8772 11.5004 11 11.5004C11.1228 11.5004 11.2434 11.4675 11.3492 11.4051L22 5.13788ZM18.5625 0.5C19.4083 0.499867 20.2245 0.811584 20.8549 1.37552C21.4853 1.93945 21.8857 2.71601 21.9794 3.55663L11 10.015L0.0206251 3.55663C0.114343 2.71601 0.514695 1.93945 1.14509 1.37552C1.77549 0.811584 2.59167 0.499867 3.4375 0.5H18.5625Z" fill="#ED7738"/>
</g>
</svg>
