<svg width="20" height="20" viewBox="0 0 20 20" fill="none" xmlns="http://www.w3.org/2000/svg">
<g id="Group 34311">
<path id="Vector" d="M17.5002 9.374H19.5002C19.5002 4.244 15.6272 0.375 10.4902 0.375V2.375C14.5522 2.375 17.5002 5.318 17.5002 9.374Z" fill="#ED7738"/>
<path id="Vector_2" d="M10.5002 6.37524C12.6032 6.37524 13.5002 7.27224 13.5002 9.37524H15.5002C15.5002 6.15024 13.7252 4.37524 10.5002 4.37524V6.37524ZM13.9222 11.8182C13.73 11.6436 13.4775 11.5504 13.218 11.5585C12.9584 11.5665 12.7122 11.6751 12.5312 11.8612L10.1382 14.3222C9.56216 14.2122 8.40416 13.8512 7.21216 12.6622C6.02016 11.4692 5.65916 10.3082 5.55216 9.73624L8.01116 7.34224C8.19757 7.16137 8.3063 6.91506 8.31432 6.65545C8.32235 6.39583 8.22904 6.14328 8.05416 5.95124L4.35916 1.88824C4.1842 1.6956 3.94104 1.57874 3.68131 1.5625C3.42159 1.54625 3.16576 1.6319 2.96816 1.80124L0.79816 3.66224C0.625271 3.83575 0.522079 4.06669 0.50816 4.31124C0.49316 4.56124 0.20716 10.4832 4.79916 15.0772C8.80516 19.0822 13.8232 19.3752 15.2052 19.3752C15.4072 19.3752 15.5312 19.3692 15.5642 19.3672C15.8087 19.3536 16.0395 19.2499 16.2122 19.0762L18.0722 16.9052C18.2416 16.7078 18.3274 16.452 18.3114 16.1923C18.2953 15.9326 18.1787 15.6893 17.9862 15.5142L13.9222 11.8182Z" fill="#ED7738"/>
</g>
</svg>
